<?xml version="1.0" encoding="UTF-8"?>
<svg width="649px" height="479px" viewBox="0 0 649 479" version="1.1" xmlns="http://www.w3.org/2000/svg" xmlns:xlink="http://www.w3.org/1999/xlink">
    <title>Group 2 Copy 2</title>
    <defs>
        <path d="M355.248508,189.697864 L341.036641,270.878046 C340.902567,272.759706 341.036641,275.985409 343.181828,278.404686 C344.924793,280.42075 347.204055,280.823963 348.142575,281.092771 C353.639618,282.30241 378.711497,282.30241 412.900424,281.092771 C413.838944,280.689558 415.179686,279.883133 416.520428,278.404686 C419.067839,275.313387 418.933764,271.818876 418.79969,270.878046 L428.721183,188.219417 C428.855257,187.6818 429.793776,183.649672 427.246366,180.289565 C424.967104,177.467075 420.944878,176.257437 417.190799,177.467075 C399.627076,178.004692 382.197427,178.407905 364.633704,178.945522 C363.427036,179.214331 361.549997,179.751948 359.672958,181.230395 C355.91888,184.187289 355.382583,188.757034 355.248508,189.697864 Z" id="path-1"></path>
        <path d="M355.248508,189.697864 L341.036641,270.878046 C340.902567,272.759706 341.036641,275.985409 343.181828,278.404686 C344.924793,280.42075 347.204055,280.823963 348.142575,281.092771 C353.639618,282.30241 378.711497,282.30241 412.900424,281.092771 C413.838944,280.689558 415.179686,279.883133 416.520428,278.404686 C419.067839,275.313387 418.933764,271.818876 418.79969,270.878046 L428.721183,188.219417 C428.855257,187.6818 429.793776,183.649672 427.246366,180.289565 C424.967104,177.467075 420.944878,176.257437 417.190799,177.467075 C399.627076,178.004692 382.197427,178.407905 364.633704,178.945522 C363.427036,179.214331 361.549997,179.751948 359.672958,181.230395 C355.91888,184.187289 355.382583,188.757034 355.248508,189.697864 Z" id="path-2"></path>
    </defs>
    <g id="Page-1" stroke="none" stroke-width="1" fill="none" fill-rule="evenodd">
        <g id="Group-2-Copy-2" transform="translate(1.000000, 1.000000)">
            <circle id="Oval" stroke="#979797" fill-opacity="0.844569493" fill="#D8D8D8" cx="526" cy="396" r="64.5"></circle>
            <g id="Group">
                <g id="Capa_2" transform="translate(73.000000, 99.000000)" fill="#FFFFFF" stroke="#000000" stroke-width="12">
                    <path d="M68.8342043,0.403539823 L392.838955,0.403539823 C392.838955,0.403539823 411.660808,4.43893805 407.627553,34.0318584 L365.950594,292.297345 L189.025178,292.297345 C178.269834,292.297345 168.858907,285.168142 165.766746,274.945133 C162.136817,262.569912 145.869359,249.118584 133.097387,243.469027 C121.535392,238.492035 90.3448931,237.146903 71.9263658,254.230088 C71.5230404,254.633628 67.8931116,256.382301 60.0954869,265.79823 C51.760095,275.752212 42.3491686,294.585423 41.6769596,294.585423 C21.5106888,294.853097 26.216152,254.902655 26.216152,254.902655 L0,240.778761 L43.2902613,16.5451327 C43.2902613,16.5451327 48.6679335,0.403539823 68.8342043,0.403539823 Z" id="Path"></path>
                    <path d="M412.736342,39.0048171 L496.76247,39.0048171 C496.76247,39.0048171 502.812352,37.0123207 508.862233,42.98981 C514.912114,48.9672994 508.862233,143.278798 508.862233,143.278798 C508.862233,143.278798 504.15677,156.562108 511.551069,163.867928 C518.945368,171.173748 560.622328,187.777885 560.622328,187.777885 C577.561995,194.81804 545.833729,300.686018 545.833729,300.686018 L511.147743,300.686018 L511.551069,276.985797 C502.919367,251.310557 482.235677,238.472938 449.5,238.472938 C416.764323,238.472938 397.607389,256.111637 392.0292,291.389037 L369,291.389037 L412.736342,39.0048171 Z" id="Path"></path>
                </g>
                <path d="M531.486121,90 C570.674918,90 569.999249,138 569.999249,138 L495,138 C495,138 503.108027,90 531.486121,90 Z" id="Path" stroke="#000000" stroke-width="6" fill="#FDD24A"></path>
                <path d="M308.091577,52.9156382 C270.271856,44.2457132 268,100 268,100 L329.473751,100 C329.473751,100 342.83761,60.9186459 308.091577,52.9156382 Z" id="Path" stroke="#000000" stroke-width="6" fill="#FDD24A"></path>
                <path d="M140.248508,189.697864 L126.036641,270.878046 C125.902567,272.759706 126.036641,275.985409 128.181828,278.404686 C129.924793,280.42075 132.204055,280.823963 133.142575,281.092771 C138.639618,282.30241 163.711497,282.30241 197.900424,281.092771 C198.838944,280.689558 200.179686,279.883133 201.520428,278.404686 C204.067839,275.313387 203.933764,271.818876 203.79969,270.878046 L213.721183,188.219417 C213.855257,187.6818 214.793776,183.649672 212.246366,180.289565 C209.967104,177.467075 205.944878,176.257437 202.190799,177.467075 C184.627076,178.004692 167.197427,178.407905 149.633704,178.945522 C148.427036,179.214331 146.549997,179.751948 144.672958,181.230395 C140.91888,184.187289 140.382583,188.757034 140.248508,189.697864 Z" id="Path" stroke="#000000" stroke-width="6"></path>
                <polygon id="Path" stroke="#000000" stroke-width="3" fill="#DF107A" points="264.348315 217.811715 233.741573 217.811715 227 244.589958 258.011236 244.589958 248.168539 279 276.617978 279 286.191011 246.866109 314.505618 246.866109 323 217.811715 292.258427 217.945607 302.775281 183.133891 274.191011 183"></polygon>
                <path d="M131.181197,456.294431 L632.22233,456.294431 C632.22233,456.294431 639.610336,454.691419 643.908812,458.966117 C646.864014,461.904972 646.864014,465.778917 647,466.580423 C647,467.916266 647.132669,470.988706 644.983431,473.660392 C642.699865,476.465663 639.341681,476.866416 638.535717,477 C469.417543,477 300.29937,477 131.181197,477 C131.181197,477 122.046935,474.996235 122.987227,470.320784 C118.420096,458.698948 131.181197,456.294431 131.181197,456.294431 Z" id="Path" stroke="#000000" fill="#000000" fill-rule="nonzero"></path>
                <path d="M59.7567568,456.014442 L97.5945946,456.014442 C97.5945946,456.014442 103,459.399209 103,466.439525 C103,473.479842 97.5945946,477 97.5945946,477 L59.7567568,477 C59.7567568,477 53,476.323047 53,465.762572 C53,455.202097 59.7567568,456.014442 59.7567568,456.014442 Z" id="Path" stroke="#000000" fill="#000000" fill-rule="nonzero"></path>
                <path d="M18.7216145,90 L88.1967996,90 C88.1967996,90 97.6400286,91.046729 96.9655122,96.9345794 C96.2909959,102.82243 90.2203486,104 90.2203486,104 L18.7216145,104 C18.7216145,104 14,102.691589 14,96.9345794 C14,91.1775701 18.7216145,90 18.7216145,90 Z" id="Path" stroke="#000000" fill="#000000" fill-rule="nonzero"></path>
                <path d="M4.82649263,160 L45.7176108,160 C46.1198185,160 46.5220262,160 46.9242339,160.130841 C49.0693418,160.523364 55.5046653,162.093458 54.9683883,167.065421 C54.5661806,170.859813 51.7507266,172.691589 50.0078265,173.476636 C49.0693418,173.869159 48.1308571,174 47.1923724,174 L7.37380819,174 C3.48580024,174 0.13406924,170.859813 0,167.065421 C0,166.934579 0.804415439,160 4.82649263,160 Z" id="Path" stroke="#000000" fill="#000000" fill-rule="nonzero"></path>
                <path d="M40.3749402,124 L64.6965447,124 C65.0996652,124 65.5027857,124 65.9059063,124.130841 C68.0558824,124.523364 74.5058106,126.093458 73.9683166,131.065421 C73.5651961,134.859813 70.7433525,136.691589 68.9964969,137.476636 C68.0558824,137.869159 67.1152678,138 66.1746533,138 L40.3749402,138 C36.4781086,138 35.1343735,134.859813 35,131.065421 C35,130.934579 36.4781086,124 40.3749402,124 Z" id="Path" stroke="#000000" fill="#000000" fill-rule="nonzero"></path>
                <path d="M262.615898,13.1061834 L280.653553,37.5748552 C280.920777,37.840819 282.123288,39.3036201 281.989675,41.2983487 C281.989675,42.8941317 281.188002,43.957987 280.920777,44.3569327 C280.787165,44.6228966 279.851879,45.6867518 278.248532,45.9527157 C276.511573,46.2186795 275.442675,45.2878061 275.17545,45.0218423 C268.762062,36.1120542 262.348674,27.335248 255.935286,18.4254599 C255.668061,18.1594961 255,17.2286227 255,15.7658216 C255,14.3030206 255.668061,13.3721472 255.935286,13.1061834 C256.336123,12.8402196 257.405021,12.17531 258.874755,12.0423281 C260.878939,11.7763643 262.215062,12.8402196 262.615898,13.1061834 Z" id="Path" stroke="#000000" fill="#000000" fill-rule="nonzero"></path>
                <path d="M347.004673,11.2182954 L327.490654,38.571306 C327.219626,38.9735561 326,40.4484734 326,42.7278909 C326,44.4709749 326.813084,45.8118088 327.219626,46.2140589 C327.35514,46.4822257 328.303738,47.6889762 330.065421,47.9571429 C331.827103,48.2253097 333.182243,47.1526426 333.317757,47.0185592 C340.228972,37.0963887 347.140187,27.0401348 354.051402,17.1179643 C354.32243,16.7157142 355,15.6430471 355,14.1681299 C355,12.5591292 354.32243,11.4864622 354.051402,11.2182954 C353.64486,10.8160452 352.560748,10.1456283 350.934579,10.0115449 C348.901869,9.87746153 347.411215,10.9501286 347.004673,11.2182954 Z" id="Path" stroke="#000000" fill="#000000" fill-rule="nonzero"></path>
                <path d="M307.291299,3.60230951 L308.97547,33.8883932 C308.97547,34.2886498 309.234573,36.156514 308.068609,37.7575404 C307.161748,39.0917291 305.995784,39.6254046 305.477578,39.7588235 C305.218475,39.8922424 303.922959,40.292499 302.497892,39.6254046 C301.072825,38.9583103 300.554619,37.4907027 300.554619,37.223865 C300.036412,26.2835175 299.518206,15.3431701 299,4.40282274 C299,4.00256612 299,2.80179629 299.647758,1.73444532 C300.425067,0.533675483 301.461479,0.133418871 301.720583,0 C302.238789,0 303.404753,0 304.700268,0.667094354 C306.51399,1.60102645 307.161748,3.2020529 307.291299,3.60230951 Z" id="Path" stroke="#000000" fill="#000000" fill-rule="nonzero"></path>
                <path d="M489.615898,53.0777123 L507.653553,77.5675629 C507.920777,77.8337569 509.123288,79.297824 508.989675,81.2942793 C508.989675,82.8914434 508.188002,83.9562195 507.920777,84.3555106 C507.787165,84.6217046 506.851879,85.6864807 505.248532,85.9526747 C503.511573,86.2188688 502.442675,85.2871897 502.17545,85.0209956 C495.762062,76.1034957 489.348674,67.3190928 482.935286,58.4015928 C482.668061,58.1353988 482,57.2037197 482,55.7396526 C482,54.2755854 482.668061,53.3439063 482.935286,53.0777123 C483.336123,52.8115182 484.405021,52.1460332 485.874755,52.0129362 C487.878939,51.8798391 489.348674,52.8115182 489.615898,53.0777123 Z" id="Path" stroke="#000000" fill="#000000" fill-rule="nonzero"></path>
                <path d="M574.004673,51.2482374 L554.490654,78.5789814 C554.219626,78.9809041 553,80.4546206 553,82.7321826 C553,84.4738477 553.813084,85.8135901 554.219626,86.2155128 C554.35514,86.4834612 555.303738,87.6892293 557.065421,87.9571778 C558.827103,88.2251263 560.182243,87.1533324 560.317757,87.0193582 C567.228972,77.1052648 574.140187,67.0571971 581.051402,57.1431037 C581.32243,56.741181 582,55.6693871 582,54.1956705 C582,52.5879797 581.32243,51.5161858 581.051402,51.2482374 C580.64486,50.8463147 579.560748,50.1764435 577.934579,50.0424693 C575.901869,49.7745208 574.411215,50.8463147 574.004673,51.2482374 Z" id="Path" stroke="#000000" fill="#000000" fill-rule="nonzero"></path>
                <path d="M535.291299,43.6023095 L536.97547,73.8883932 C536.97547,74.2886498 537.234573,76.156514 536.068609,77.7575404 C535.161748,79.0917291 533.995784,79.6254046 533.477578,79.7588235 C533.218475,79.8922424 531.922959,80.292499 530.497892,79.6254046 C529.072825,78.9583103 528.554619,77.4907027 528.554619,77.223865 C528.036412,66.2835175 527.518206,55.3431701 527,44.4028227 C527,44.0025661 527,42.8017963 527.647758,41.7344453 C528.425067,40.5336755 529.461479,40.1334189 529.720583,40 C530.238789,40 531.404753,40 532.700268,40.6670944 C534.51399,41.6010264 535.161748,43.2020529 535.291299,43.6023095 Z" id="Path" stroke="#000000" fill="#000000" fill-rule="nonzero"></path>
                <polygon id="Path" stroke="#000000" points="183.652079 181 138.269147 221.592875 136 234 197 181"></polygon>
                <path d="M133.70506,243.400998 L131,262 L209.446752,195.690516 C209.717258,195.28619 211.6108,185.447587 210.799282,183.830283 C210.393523,183.021631 209.717258,181.943428 208.49998,181 C183.613425,201.755408 158.726869,222.510815 133.70506,243.400998 Z" id="Path" stroke="#000000"></path>
                <path d="M241,398 C241,430.013857 215.013857,456 183,456 C150.986143,456 125,430.013857 125,398 C125,365.718245 143.752887,340 183,340 C215.013857,340 241,365.986143 241,398 Z" id="Path" stroke="#000000" stroke-width="8" fill="#4B4B4B"></path>
                <circle id="Oval" stroke="#000000" stroke-width="8" cx="183" cy="398" r="19"></circle>
                <circle id="Oval" stroke="#979797" fill="#4B4B4B" cx="525" cy="397" r="56.5"></circle>
                <path d="M526,454 C493.986143,454 468,428.013857 468,396" id="Path" stroke="#000000" stroke-width="8"></path>
                <path d="M584,396 C584,428.013857 558.013857,454 526,454" id="Path" stroke="#000000" stroke-width="8"></path>
                <path d="M526,340 C493.986143,340 468,365.986143 468,398" id="Path" stroke="#000000" stroke-width="8"></path>
                <circle id="Oval" stroke="#979797" fill="#D8D8D8" cx="526" cy="397" r="18.5"></circle>
                <path d="M585,398 C585,365.999261 558.846722,339.086506 526.626962,340.023766 C489.149584,341.094921 480.521699,358.768969 471.354571,379.388692 C462.052632,400.276203 439,393.983171 439,393.983171" id="Path" stroke="#000000" stroke-width="8"></path>
                <path d="M630,317 L459.110294,317 L447.633544,388.5 C447.633544,388.5 460.367447,387.412423 462.354103,382.930701 C463.004022,381.464541 465.093138,374.42902 466.061796,371.935941 C471.636093,357.589113 480.35524,348.798052 491.076545,341.930501 C506.009992,332.364855 518.363689,331.795888 526,331.795888 C550.358278,331 572.483619,347.831902 579.77566,359.989159 C583.171476,365.650648 588.602551,376.737455 589.507826,383.393095 C590.413101,390.048734 590.413101,394.817763 590.413101,395.222361 C592.835159,396.840755 595.6875,394.817763 603.895588,395.222361 C608.739706,395.492094 613.180147,396.436157 613.314706,395.761826 C613.314706,395.62696 613.045588,395.357227 612.911029,395.222361 C616.409559,383.623873 619.908088,371.081322 622.868382,357.594708 C626.097794,343.164031 628.385294,329.677417 630,317 Z" id="Path" stroke="#000000" fill="#10ADC5"></path>
                <path d="M442,318 L84.4408922,318 L80,335.982735 L106.376208,350.207883 C106.376208,350.207883 103.684758,383.355163 110.413383,383.355163 C117.142007,383.355163 134.636431,331.419951 182.14052,331.956749 C229.64461,332.359348 243.505576,369.130015 243.505576,369.130015 C243.505576,369.130015 244.985874,373.692798 248.350186,377.718784 C252.656506,382.952565 259.92342,383.220964 269.208922,383.489363 C286.837918,383.891961 295.719703,384.16036 305.947212,383.891961 C315.232714,383.757762 324.518216,383.891961 333.803717,383.891961 C360.449071,383.891961 362.467658,383.891961 375.117472,383.891961 C375.117472,383.891961 388.305576,383.891961 431.637918,383.757762 L442,318 Z" id="Path" stroke="#000000" fill="#10ADC5"></path>
                <path d="M375.517516,177 L421.0245,177 C426.3415,176.565653 429,181.5404 429,191.92424 C429,202.30808 425.37899,229.604281 418.136969,273.812843 C417.15196,279.270948 412.222604,282 403.348899,282 C394.475195,282 377.095727,282 351.210495,282 C342.549334,281.465982 339.145835,276.389389 341,266.770221 C342.854165,257.151052 347.854165,230.964952 356,188.211921 C356.67996,180.737307 362.281307,177 372.804039,177" id="Path-2" fill="#D8D8D8"></path>
            </g>
            <path d="M545,396 C545,406.510638 536.510638,415 526,415 C515.489362,415 507,406.510638 507,396" id="Path" stroke="#000000" stroke-width="8"></path>
            <path d="M545,398 C545,387.489362 536.510638,379 526,379 C515.489362,379 507,387.489362 507,398" id="Path" stroke="#000000" stroke-width="8"></path>
            <g id="Path">
                <use stroke="#000000" stroke-width="6" xlink:href="#path-1"></use>
                <use stroke="#979797" stroke-width="1" xlink:href="#path-1"></use>
            </g>
            <path d="M509,177 L540.300073,177 C546.766691,177.379865 550,181.873258 550,190.480181 C550,199.087104 550,218.760377 550,249.5 C548,257.833333 543.666667,262 537,262 C530.333333,262 520.402828,261.60373 507.208484,260.811189 C499.402828,261.60373 495.5,257.833333 495.5,249.5 C495.5,241.166667 498.511338,219.526224 504.534015,184.578671 L509,177 Z" id="Path-7" stroke="#979797" fill="#D8D8D8"></path>
            <g id="Path">
                <use stroke="#000000" stroke-width="6" xlink:href="#path-2"></use>
                <use stroke="#979797" stroke-width="1" xlink:href="#path-2"></use>
            </g>
            <path d="M495.173371,247.035839 L504.534015,184.578671 C504.534015,184.578671 505.202632,178.02535 512.557424,177.356643 C519.912216,176.554196 539.302121,177.356643 539.302121,177.356643 C539.302121,177.356643 550,177.891608 550,183.909965 C550,189.928322 550,247.035839 550,247.035839 C550,247.035839 548.662765,258.136364 543.714996,260.811189 C538.767227,263.486014 507.208484,260.811189 507.208484,260.811189 C507.208484,260.811189 493.301242,259.741259 495.173371,247.035839 Z" id="Path" stroke="#000000" stroke-width="5"></path>
        </g>
    </g>
</svg>