<?xml version="1.0" encoding="utf-8"?>
<!-- Generator: Adobe Illustrator 19.2.1, SVG Export Plug-In . SVG Version: 6.00 Build 0)  -->
<svg version="1.1" id="Capa_1" xmlns="http://www.w3.org/2000/svg" xmlns:xlink="http://www.w3.org/1999/xlink" x="0px" y="0px"
	 viewBox="0 0 649 479" style="enable-background:new 0 0 649 479;" xml:space="preserve">
<style type="text/css">
	.st0{fill:#D8D8D8;fill-opacity:0.8446;stroke:#979797;}
	.st1{fill:#FFFFFF;stroke:#000000;stroke-width:12;}
	.st2{fill:#FDD24A;stroke:#000000;stroke-width:6;}
	.st3{fill:#D8D8D8;stroke:#1D1D1B;stroke-width:6;}
	.st4{fill:#DF107A;stroke:#000000;stroke-width:3;}
	.st5{stroke:#000000;}
	.st6{fill:#D8D8D8;}
	.st7{fill:#4B4B4B;stroke:#000000;stroke-width:8;}
	.st8{fill:#D8D8D8;stroke:#000000;stroke-width:8;}
	.st9{fill:#4B4B4B;stroke:#979797;}
	.st10{fill:none;stroke:#000000;stroke-width:8;}
	.st11{fill:#10ADC5;stroke:#000000;}
	.st12{fill:#D8D8D8;stroke:#979797;}
	.st13{fill:none;stroke:#000000;stroke-width:5;}
</style>
<title>Group 2 Copy 2</title>
<g id="Page-1">
	<g id="Group-2-Copy-2" transform="translate(1.000000, 1.000000)">
		<path id="Oval" class="st0" d="M526,325c35.6,0,59.7,28.9,59.7,64.5S561.6,454,526,454s-60-27.5-60-63.1S490.4,325,526,325z"/>
		<g id="Group">
			<g id="Capa_2" transform="translate(73.000000, 99.000000)">
				<path id="Path" class="st1" d="M68.8,0.4h324c0,0,18.8,4,14.8,33.6L366,292.3H189c-10.8,0-20.2-7.1-23.3-17.4
					c-3.6-12.4-19.9-25.8-32.7-31.5c-11.6-5-42.8-6.3-61.2,10.8c-0.4,0.4-4,2.2-11.8,11.6c-8.3,10-17.7,28.8-18.4,28.8
					c-20.2,0.3-15.5-39.7-15.5-39.7L0,240.8L43.3,16.5C43.3,16.5,48.7,0.4,68.8,0.4z"/>
				<path id="Path_1_" class="st1" d="M412.7,39h84c0,0,6-2,12.1,4c6,6-2.9,101.4-2.9,101.4s-1.8,12.2,5.6,19.5
					c7.4,7.3,49.1,23.9,49.1,23.9c16.9,7-14.8,112.9-14.8,112.9h-34.7l0.4-23.7c-8.6-25.7-29.3-38.5-62.1-38.5s-51.9,17.6-57.5,52.9
					h-23L412.7,39z"/>
			</g>
			<path id="Path_2_" class="st2" d="M531.5,90c39.2,0,38.5,48,38.5,48h-75C495,138,503.1,90,531.5,90z"/>
			<path id="Path_3_" class="st2" d="M308.1,52.9C270.3,44.2,268,100,268,100h61.5C329.5,100,342.8,60.9,308.1,52.9z"/>
			<path id="Path_4_" class="st3" d="M140.2,189.7L126,270.9c-0.1,1.9,0,5.1,2.1,7.5c1.7,2,4,2.5,5,2.7c5.5,1.3,29.7,1.4,62.5,0.5
				c0.9-0.3,4.2-1.3,6.3-4.7c1.6-2.5,1.8-4.9,1.8-6l9.9-82.7c0.1-0.9,0.2-4.1-2.1-7c-3.4-4.4-9.1-3.8-9.5-3.8
				c-17.6,0.5-35,0.9-52.6,1.5c-1.2,0.3-3.1,0.8-5,2.3C140.9,184.2,140.4,188.8,140.2,189.7z"/>
			<polygon id="Path_5_" class="st4" points="264.3,217.8 233.7,217.8 227,244.6 258,244.6 248.2,279 276.6,279 286.2,246.9 
				314.5,246.9 323,217.8 292.3,217.9 302.8,183.1 274.2,183 			"/>
			<path id="Path_6_" class="st5" d="M131.2,456.3h501c0,0,7.4-1.6,11.7,2.7c3,2.9,3,6.8,3.1,7.6c0,1.3,0.1,4.4-2,7.1
				c-2.3,2.8-5.6,3.2-6.4,3.3c-169.1,0-338.2,0-507.4,0c0,0-9.1-2-8.2-6.7C118.4,458.7,131.2,456.3,131.2,456.3z"/>
			<path id="Path_7_" class="st5" d="M59.8,456h37.8c0,0,5.4,3.4,5.4,10.4S97.6,477,97.6,477H59.8c0,0-6.8-0.7-6.8-11.2
				S59.8,456,59.8,456z"/>
			<path id="Path_8_" class="st5" d="M18.7,90h69.5c0,0,9.4,1,8.8,6.9c-0.7,5.9-6.7,7.1-6.7,7.1H18.7c0,0-4.7-1.3-4.7-7.1
				S18.7,90,18.7,90z"/>
			<path id="Path_9_" class="st5" d="M4.8,160h40.9c0.4,0,0.8,0,1.2,0.1c2.1,0.4,8.6,2,8,6.9c-0.4,3.8-3.2,5.6-5,6.4
				c-0.9,0.4-1.9,0.5-2.8,0.5H7.4c-3.9,0-7.2-3.1-7.4-6.9C0,166.9,0.8,160,4.8,160z"/>
			<path id="Path_10_" class="st5" d="M40.4,124h24.3c0.4,0,0.8,0,1.2,0.1c2.1,0.4,8.6,2,8.1,6.9c-0.4,3.8-3.2,5.6-5,6.4
				c-0.9,0.4-1.9,0.5-2.8,0.5H40.4c-3.9,0-5.2-3.1-5.4-6.9C35,130.9,36.5,124,40.4,124z"/>
			<path id="Path_11_" class="st5" d="M262.6,13.1l18,24.5c0.3,0.3,1.5,1.7,1.3,3.7c0,1.6-0.8,2.7-1.1,3.1c-0.1,0.3-1.1,1.3-2.7,1.6
				c-1.7,0.3-2.8-0.7-3.1-0.9c-6.4-8.9-12.8-17.7-19.2-26.6c-0.3-0.3-0.9-1.2-0.9-2.7s0.7-2.4,0.9-2.7c0.4-0.3,1.5-0.9,2.9-1.1
				C260.9,11.8,262.2,12.8,262.6,13.1z"/>
			<path id="Path_12_" class="st5" d="M347,11.2l-19.5,27.4c-0.3,0.4-1.5,1.9-1.5,4.2c0,1.7,0.8,3.1,1.2,3.5
				c0.1,0.3,1.1,1.5,2.8,1.7c1.8,0.3,3.1-0.8,3.3-0.9c6.9-9.9,13.8-20,20.7-29.9c0.3-0.4,0.9-1.5,0.9-2.9c0-1.6-0.7-2.7-0.9-2.9
				c-0.4-0.4-1.5-1.1-3.1-1.2C348.9,9.9,347.4,11,347,11.2z"/>
			<path id="Path_13_" class="st5" d="M307.3,3.6l1.7,30.3c0,0.4,0.3,2.3-0.9,3.9c-0.9,1.3-2.1,1.9-2.6,2c-0.3,0.1-1.6,0.5-3-0.1
				s-1.9-2.1-1.9-2.4c-0.5-10.9-1-21.9-1.6-32.8c0-0.4,0-1.6,0.6-2.7c0.8-1.2,1.8-1.6,2.1-1.7c0.5,0,1.7,0,3,0.7
				C306.5,1.6,307.2,3.2,307.3,3.6z"/>
			<path id="Path_14_" class="st5" d="M489.6,53.1l18,24.5c0.3,0.3,1.5,1.7,1.3,3.7c0,1.6-0.8,2.7-1.1,3.1c-0.1,0.3-1.1,1.3-2.7,1.6
				c-1.7,0.3-2.8-0.7-3.1-0.9c-6.4-8.9-12.8-17.7-19.2-26.6c-0.3-0.3-0.9-1.2-0.9-2.7c0-1.5,0.7-2.4,0.9-2.7
				c0.4-0.3,1.5-0.9,2.9-1.1C487.9,51.9,489.3,52.8,489.6,53.1z"/>
			<path id="Path_15_" class="st5" d="M574,51.2l-19.5,27.3c-0.3,0.4-1.5,1.9-1.5,4.2c0,1.7,0.8,3.1,1.2,3.5
				c0.1,0.3,1.1,1.5,2.8,1.7c1.8,0.3,3.1-0.8,3.3-0.9c6.9-9.9,13.8-20,20.7-29.9c0.3-0.4,0.9-1.5,0.9-2.9c0-1.6-0.7-2.7-0.9-2.9
				c-0.4-0.4-1.5-1.1-3.1-1.2C575.9,49.8,574.4,50.8,574,51.2z"/>
			<path id="Path_16_" class="st5" d="M535.3,43.6l1.7,30.3c0,0.4,0.3,2.3-0.9,3.9c-0.9,1.3-2.1,1.9-2.6,2c-0.3,0.1-1.6,0.5-3-0.1
				c-1.4-0.7-1.9-2.1-1.9-2.4c-0.5-10.9-1-21.9-1.6-32.8c0-0.4,0-1.6,0.6-2.7c0.8-1.2,1.8-1.6,2.1-1.7c0.5,0,1.7,0,3,0.7
				C534.5,41.6,535.2,43.2,535.3,43.6z"/>
			<line id="Path_18_" class="st6" x1="138.3" y1="221.6" x2="136" y2="234"/>
			<line id="Path_17_" class="st6" x1="197" y1="181" x2="183.7" y2="181"/>
			<path id="Path_19_" class="st7" d="M241,398c0,32-26,58-58,58s-58-26-58-58c0-32.3,18.8-58,58-58C215,340,241,366,241,398z"/>
			<circle id="Oval_1_" class="st8" cx="183" cy="398" r="19"/>
			<circle id="Oval_2_" class="st9" cx="525" cy="397" r="56.5"/>
			<path id="Path_20_" class="st10" d="M526,454c-32,0-58-26-58-58"/>
			<path id="Path_21_" class="st10" d="M585,398c0,32-27,56-59,56"/>
			<path id="Path_22_" class="st10" d="M526,340c-32,0-58,26-58,58"/>
			<path id="Path_23_" class="st10" d="M585,398c0-32-26.2-58.9-58.4-58c-37.5,1.1-46.1,18.7-55.3,39.4
				c-9.3,20.9-41.6,11.9-41.6,11.9"/>
			<path id="Path_24_" class="st11" d="M631.5,317H460.6l-12.1,68.7c0,0,13.4,1.7,15.3-2.8c0.6-1.5,2.7-8.5,3.7-11
				c5.6-14.3,14.3-23.1,25-30c14.9-9.6,27.3-10.1,34.9-10.1c24.4-0.8,46.5,16,53.8,28.2c3.4,5.7,7.7,17.2,8.6,23.9
				s0.2,10.1,0.2,10.5c2.4,1.6,6.8,1.2,15,1.6c4.8,0.3,9.7,0.4,9.8-0.2c0-0.1-0.3-0.4-0.4-0.5c3.5-11.6,7-24.1,10-37.6
				C627.6,343.2,629.9,329.7,631.5,317z"/>
			<path id="Path_25_" class="st11" d="M444.8,318H82.8l-3,19.5l26.2,14c-1.1,3.7-2.4,9.6-1,18.4c1.2,7.2,2.5,15.8,6.3,17.5
				c2-3.4,4.9-8.2,8.8-13.8c7.8-11.1,14-20.1,23.3-27.1c16.8-12.7,35.9-13.1,39.7-13.2c18.6-0.2,35.9,7.6,43.8,15.5
				c5.8,5.8,15.7,20.1,15.8,20.1c0,0,2.8,6,6.2,10c4.3,5.2,10.7,6.9,21.3,6.4c17.6,0.4,25.9,0.4,36.2,0.1c9.3-0.1,18,0.2,27.3,0.2
				c26.6,0,28.7,0,41.3,0c0,0,16,0.1,59.3,0L444.8,318z"/>
		</g>
		<path id="Path_33_" class="st10" d="M507,396"/>
		<path id="Path_31_" class="st10" d="M545,396"/>
		<path id="Path_32_" class="st10" d="M507,398"/>
		<path id="Path_34_" class="st10" d="M526,379"/>
		<path id="Path_26_" class="st10" d="M545,398"/>
		<g id="Path_28_">
			<g>
			</g>
		</g>
		<path id="Path-7" class="st12" d="M509,177h31.3c6.5,0.4,9.7,4.9,9.7,13.5s0,28.3,0,59c-2,8.3-6.3,12.5-13,12.5
			s-16.6-0.4-29.8-1.2c-7.8,0.8-11.7-3-11.7-11.3c0-8.3,3-30,9-64.9L509,177z"/>
		<path id="Path_30_" class="st13" d="M495.2,247l9.4-62.5c0,0,0.7-6.6,8-7.2c7.4-0.8,26.7,0,26.7,0s10.7,0.5,10.7,6.6
			c0,6,0,63.1,0,63.1s-1.3,11.1-6.3,13.8c-4.9,2.7-36.5,0-36.5,0S493.3,259.7,495.2,247z"/>
	</g>
	<path class="st11" d="M111.8,402.6"/>
</g>
<path id="Path_29_" class="st3" d="M357.2,194.9L343,276.1c-0.1,1.9,0,5.1,2.1,7.5c1.7,2,4,2.5,5,2.7c5.5,1.3,29.7,1.4,62.5,0.5
	c0.9-0.3,4.2-1.3,6.3-4.7c1.6-2.5,1.8-4.9,1.8-6l9.9-82.7c0.1-0.9,0.2-4.1-2.1-7c-3.4-4.4-9.1-3.8-9.5-3.8
	c-17.6,0.5-35,0.9-52.6,1.5c-1.2,0.3-3.1,0.8-5,2.3C357.9,189.4,357.4,194,357.2,194.9z"/>
<circle id="Oval_3_" class="st8" cx="528" cy="399" r="19"/>
<path class="st11" d="M99,406.9"/>
</svg>
