<?xml version="1.0" encoding="utf-8"?>
<!-- Generator: Adobe Illustrator 19.2.1, SVG Export Plug-In . SVG Version: 6.00 Build 0)  -->
<svg version="1.1" id="Capa_1" xmlns="http://www.w3.org/2000/svg" xmlns:xlink="http://www.w3.org/1999/xlink" x="0px" y="0px"
	 viewBox="0 0 850.4 850.4" style="enable-background:new 0 0 850.4 850.4;" xml:space="preserve">
<style type="text/css">
	.st0{fill:#2E2815;}
	.st1{fill:#E1157A;}
	.st2{fill:#FDC619;}
	.st3{fill:#11ADC4;}
</style>
<g>
	<g id="Layer_7_2_">
		<path class="st0" d="M770.3,472.8c0-33.1-15.5-62.5-39.6-81.5v-26.8c0-109.9-89.4-199.4-199.4-199.4
			c-109.9,0-199.4,89.4-199.4,199.4v19.6c-29.9,18.2-49.9,51.1-49.9,88.6c0,57.2,46.4,103.6,103.6,103.6V369.2
			c-7.4,0-14.6,0.8-21.5,2.2v-6.9c0-92.1,75-167.1,167.1-167.1c92.2,0,167.1,75,167.1,167.1v9.6c-10-3.2-20.7-5-31.8-5v207.3
			c6.7,0,13.3-0.7,19.6-1.9c-10.5,22.3-34.4,56-85.2,65.6c-3.3-3.7-8.1-6.1-13.4-6.1h-32.3c-10,0-18.1,8.1-18.1,18.1
			c0,10,8.1,18.1,18.1,18.1h32.4c7.8,0,14.3-4.9,16.9-11.8c71.3-13.4,97.1-68.8,104.7-91.4C745.3,550.9,770.3,514.8,770.3,472.8z"/>
	</g>
</g>
<circle class="st1" cx="358.7" cy="654.2" r="32.3"/>
<circle class="st2" cx="162.6" cy="365" r="82.3"/>
<circle class="st3" cx="211.3" cy="574" r="56"/>
</svg>
