<!--?xml version="1.0" encoding="utf-8"?-->
<!-- Generator: Adobe Illustrator 18.1.1, SVG Export Plug-In . SVG Version: 6.00 Build 0)  -->

<svg version="1.1" id="_x31_0" xmlns="http://www.w3.org/2000/svg" xmlns:xlink="http://www.w3.org/1999/xlink" x="0px" y="0px" viewBox="0 0 512 512" style="width: 256px; height: 256px; opacity: 1;" xml:space="preserve">
<style type="text/css">
	.st0{fill:#374149;}
</style>
<g>
	<path class="st0" d="M433.398,67.676C385.558,27.774,322.558,5.793,256,5.793c-66.558,0-129.558,21.981-177.394,61.883
		C27.918,109.965,0,167.035,0,228.382c0,61.348,27.918,118.418,78.606,160.703c44.285,36.942,101.57,58.52,162.641,61.52
		l56.422,44.062c9.734,7.602,21.566,11.539,33.531,11.539c6.886,0,13.817-1.305,20.41-3.969c18.039-7.294,30.82-23.661,33.523-42.93
		l5.844-41.672C465.438,377.496,512,306.043,512,228.382C512,167.035,484.086,109.965,433.398,67.676z M448.726,277.586
		c-1.266,3.458-2.652,6.867-4.172,10.223c-0.66,1.441-1.422,2.843-2.125,4.273c-1.074,2.18-2.121,4.371-3.297,6.504
		c-0.965,1.742-2.047,3.434-3.078,5.149c-1.09,1.805-2.133,3.633-3.297,5.398c-1.019,1.55-2.148,3.043-3.222,4.562
		c-1.355,1.91-2.668,3.844-4.11,5.703c-0.812,1.05-1.707,2.058-2.55,3.094c-1.863,2.293-3.719,4.594-5.715,6.805
		c-0.34,0.379-0.714,0.738-1.062,1.113c-19.66,21.426-45.328,38.813-74.946,50.352l-6.652,47.402l-3.379,23.519l-70.785-55.277
		c-1.446,0.027-2.883,0.094-4.336,0.094c-111.301,0-201.531-75.27-201.531-168.118c0-92.847,90.23-168.121,201.531-168.121
		c111.305,0,201.531,75.274,201.531,168.121c0,16.844-2.973,33.106-8.5,48.446C448.938,277.082,448.82,277.332,448.726,277.586z" style="fill: rgb(253, 198, 25);"></path>
	<path class="st0" d="M271.614,131.09h-31.227c-2.758,0-5.328,1.184-7.242,3.332c-2.106,2.363-3.161,5.653-2.894,9.027
		l9.718,116.094h32.207l9.582-116.114c0.254-3.371-0.805-6.656-2.906-9.012C276.938,132.27,274.367,131.09,271.614,131.09z" style="fill: rgb(253, 198, 25);"></path>
	<path class="st0" d="M268.629,279.008h-25.258c-4.426,0-8.02,3.718-8.02,8.297v26.137c0,4.578,3.594,8.304,8.02,8.304h25.258
		c4.418,0,8.012-3.726,8.012-8.304v-26.137C276.641,282.726,273.047,279.008,268.629,279.008z" style="fill: rgb(253, 198, 25);"></path>
</g>
</svg>
